<?xml version="1.0" encoding="UTF-8" standalone="no"?>
<!DOCTYPE svg PUBLIC "-//W3C//DTD SVG 1.1//EN"
 "http://www.w3.org/Graphics/SVG/1.1/DTD/svg11.dtd">
<!-- Generated by graphviz version 2.43.0 (0)
 -->
<!-- Title: %3 Pages: 1 -->
<svg width="1714pt" height="210pt"
 viewBox="0.00 0.00 1714.09 210.00" xmlns="http://www.w3.org/2000/svg" xmlns:xlink="http://www.w3.org/1999/xlink">
<g id="graph0" class="graph" transform="scale(1 1) rotate(0) translate(4 206)">
<title>%3</title>
<polygon fill="white" stroke="transparent" points="-4,4 -4,-206 1710.09,-206 1710.09,4 -4,4"/>
<!-- 88923002898464 -->
<g id="node1" class="node">
<title>88923002898464</title>
<polygon fill="none" stroke="black" points="1475.09,-54.5 1475.09,-90.5 1706.09,-90.5 1706.09,-54.5 1475.09,-54.5"/>
<text text-anchor="middle" x="1487.59" y="-68.8" font-family="Times,serif" font-size="14.00">o</text>
<polyline fill="none" stroke="black" points="1500.09,-54.5 1500.09,-90.5 "/>
<text text-anchor="middle" x="1551.09" y="-68.8" font-family="Times,serif" font-size="14.00">data 0.7064</text>
<polyline fill="none" stroke="black" points="1602.09,-54.5 1602.09,-90.5 "/>
<text text-anchor="middle" x="1654.09" y="-68.8" font-family="Times,serif" font-size="14.00">grad 1.0000</text>
</g>
<!-- 88923002898464_op -->
<g id="node2" class="node">
<title>88923002898464_op</title>
<ellipse fill="none" stroke="black" cx="1407.24" cy="-72.5" rx="31.7" ry="31.7"/>
<text text-anchor="middle" x="1407.24" y="-68.8" font-family="Times,serif" font-size="14.00">tanh</text>
</g>
<!-- 88923002898464_op&#45;&gt;88923002898464 -->
<g id="edge1" class="edge">
<title>88923002898464_op&#45;&gt;88923002898464</title>
<path fill="none" stroke="black" d="M1439.42,-72.5C1447,-72.5 1455.58,-72.5 1464.7,-72.5"/>
<polygon fill="black" stroke="black" points="1464.79,-76 1474.79,-72.5 1464.79,-69 1464.79,-76"/>
</g>
<!-- 88923002898240 -->
<g id="node3" class="node">
<title>88923002898240</title>
<polygon fill="none" stroke="black" points="1107.39,-54.5 1107.39,-90.5 1339.39,-90.5 1339.39,-54.5 1107.39,-54.5"/>
<text text-anchor="middle" x="1120.39" y="-68.8" font-family="Times,serif" font-size="14.00">n</text>
<polyline fill="none" stroke="black" points="1133.39,-54.5 1133.39,-90.5 "/>
<text text-anchor="middle" x="1184.39" y="-68.8" font-family="Times,serif" font-size="14.00">data 0.8800</text>
<polyline fill="none" stroke="black" points="1235.39,-54.5 1235.39,-90.5 "/>
<text text-anchor="middle" x="1287.39" y="-68.8" font-family="Times,serif" font-size="14.00">grad 0.5010</text>
</g>
<!-- 88923002898240&#45;&gt;88923002898464_op -->
<g id="edge2" class="edge">
<title>88923002898240&#45;&gt;88923002898464_op</title>
<path fill="none" stroke="black" d="M1339.56,-72.5C1348.48,-72.5 1357.06,-72.5 1364.92,-72.5"/>
<polygon fill="black" stroke="black" points="1365.17,-76 1375.17,-72.5 1365.17,-69 1365.17,-76"/>
</g>
<!-- 88923002898240_op -->
<g id="node4" class="node">
<title>88923002898240_op</title>
<ellipse fill="none" stroke="black" cx="1052.54" cy="-72.5" rx="18.7" ry="18.7"/>
<text text-anchor="middle" x="1052.54" y="-68.8" font-family="Times,serif" font-size="14.00">+</text>
</g>
<!-- 88923002898240_op&#45;&gt;88923002898240 -->
<g id="edge3" class="edge">
<title>88923002898240_op&#45;&gt;88923002898240</title>
<path fill="none" stroke="black" d="M1071.61,-72.5C1078.7,-72.5 1087.46,-72.5 1097.18,-72.5"/>
<polygon fill="black" stroke="black" points="1097.18,-76 1107.18,-72.5 1097.18,-69 1097.18,-76"/>
</g>
<!-- 88923002898016 -->
<g id="node5" class="node">
<title>88923002898016</title>
<polygon fill="none" stroke="black" points="739.7,-82.5 739.7,-118.5 997.7,-118.5 997.7,-82.5 739.7,-82.5"/>
<text text-anchor="middle" x="763.2" y="-96.8" font-family="Times,serif" font-size="14.00">sum</text>
<polyline fill="none" stroke="black" points="786.7,-82.5 786.7,-118.5 "/>
<text text-anchor="middle" x="840.2" y="-96.8" font-family="Times,serif" font-size="14.00">data &#45;6.0000</text>
<polyline fill="none" stroke="black" points="893.7,-82.5 893.7,-118.5 "/>
<text text-anchor="middle" x="945.7" y="-96.8" font-family="Times,serif" font-size="14.00">grad 0.5010</text>
</g>
<!-- 88923002898016&#45;&gt;88923002898240_op -->
<g id="edge4" class="edge">
<title>88923002898016&#45;&gt;88923002898240_op</title>
<path fill="none" stroke="black" d="M986.66,-82.49C1000.28,-80.39 1013.04,-78.43 1023.58,-76.81"/>
<polygon fill="black" stroke="black" points="1024.35,-80.23 1033.71,-75.25 1023.29,-73.31 1024.35,-80.23"/>
</g>
<!-- 88923002898016_op -->
<g id="node6" class="node">
<title>88923002898016_op</title>
<ellipse fill="none" stroke="black" cx="684.85" cy="-100.5" rx="18.7" ry="18.7"/>
<text text-anchor="middle" x="684.85" y="-96.8" font-family="Times,serif" font-size="14.00">+</text>
</g>
<!-- 88923002898016_op&#45;&gt;88923002898016 -->
<g id="edge5" class="edge">
<title>88923002898016_op&#45;&gt;88923002898016</title>
<path fill="none" stroke="black" d="M703.95,-100.5C711.02,-100.5 719.8,-100.5 729.58,-100.5"/>
<polygon fill="black" stroke="black" points="729.67,-104 739.67,-100.5 729.67,-97 729.67,-104"/>
</g>
<!-- 88923002897568 -->
<g id="node7" class="node">
<title>88923002897568</title>
<polygon fill="none" stroke="black" points="357,-110.5 357,-146.5 630,-146.5 630,-110.5 357,-110.5"/>
<text text-anchor="middle" x="388" y="-124.8" font-family="Times,serif" font-size="14.00">x1*w1</text>
<polyline fill="none" stroke="black" points="419,-110.5 419,-146.5 "/>
<text text-anchor="middle" x="472.5" y="-124.8" font-family="Times,serif" font-size="14.00">data &#45;6.0000</text>
<polyline fill="none" stroke="black" points="526,-110.5 526,-146.5 "/>
<text text-anchor="middle" x="578" y="-124.8" font-family="Times,serif" font-size="14.00">grad 0.5010</text>
</g>
<!-- 88923002897568&#45;&gt;88923002898016_op -->
<g id="edge6" class="edge">
<title>88923002897568&#45;&gt;88923002898016_op</title>
<path fill="none" stroke="black" d="M616.29,-110.49C631.09,-108.3 644.92,-106.26 656.17,-104.59"/>
<polygon fill="black" stroke="black" points="656.72,-108.05 666.1,-103.12 655.7,-101.12 656.72,-108.05"/>
</g>
<!-- 88923002897568_op -->
<g id="node8" class="node">
<title>88923002897568_op</title>
<ellipse fill="none" stroke="black" cx="303" cy="-128.5" rx="18" ry="18"/>
<text text-anchor="middle" x="303" y="-124.8" font-family="Times,serif" font-size="14.00">*</text>
</g>
<!-- 88923002897568_op&#45;&gt;88923002897568 -->
<g id="edge7" class="edge">
<title>88923002897568_op&#45;&gt;88923002897568</title>
<path fill="none" stroke="black" d="M321.06,-128.5C328.06,-128.5 336.85,-128.5 346.73,-128.5"/>
<polygon fill="black" stroke="black" points="346.95,-132 356.95,-128.5 346.95,-125 346.95,-132"/>
</g>
<!-- 88923002896448 -->
<g id="node9" class="node">
<title>88923002896448</title>
<polygon fill="none" stroke="black" points="2.5,-165.5 2.5,-201.5 246.5,-201.5 246.5,-165.5 2.5,-165.5"/>
<text text-anchor="middle" x="19.5" y="-179.8" font-family="Times,serif" font-size="14.00">x1</text>
<polyline fill="none" stroke="black" points="36.5,-165.5 36.5,-201.5 "/>
<text text-anchor="middle" x="87.5" y="-179.8" font-family="Times,serif" font-size="14.00">data 2.0000</text>
<polyline fill="none" stroke="black" points="138.5,-165.5 138.5,-201.5 "/>
<text text-anchor="middle" x="192.5" y="-179.8" font-family="Times,serif" font-size="14.00">grad &#45;1.5029</text>
</g>
<!-- 88923002896448&#45;&gt;88923002897568_op -->
<g id="edge8" class="edge">
<title>88923002896448&#45;&gt;88923002897568_op</title>
<path fill="none" stroke="black" d="M220.65,-165.44C230.33,-162.79 239.93,-159.82 249,-156.5 259.01,-152.84 269.49,-147.63 278.47,-142.69"/>
<polygon fill="black" stroke="black" points="280.24,-145.71 287.2,-137.72 276.77,-139.63 280.24,-145.71"/>
</g>
<!-- 88923002896896 -->
<g id="node10" class="node">
<title>88923002896896</title>
<polygon fill="none" stroke="black" points="0,-110.5 0,-146.5 249,-146.5 249,-110.5 0,-110.5"/>
<text text-anchor="middle" x="19" y="-124.8" font-family="Times,serif" font-size="14.00">w1</text>
<polyline fill="none" stroke="black" points="38,-110.5 38,-146.5 "/>
<text text-anchor="middle" x="91.5" y="-124.8" font-family="Times,serif" font-size="14.00">data &#45;3.0000</text>
<polyline fill="none" stroke="black" points="145,-110.5 145,-146.5 "/>
<text text-anchor="middle" x="197" y="-124.8" font-family="Times,serif" font-size="14.00">grad 1.0019</text>
</g>
<!-- 88923002896896&#45;&gt;88923002897568_op -->
<g id="edge9" class="edge">
<title>88923002896896&#45;&gt;88923002897568_op</title>
<path fill="none" stroke="black" d="M249.04,-128.5C258.39,-128.5 267.1,-128.5 274.65,-128.5"/>
<polygon fill="black" stroke="black" points="274.82,-132 284.82,-128.5 274.82,-125 274.82,-132"/>
</g>
<!-- 88923002897792 -->
<g id="node11" class="node">
<title>88923002897792</title>
<polygon fill="none" stroke="black" points="359.5,-55.5 359.5,-91.5 627.5,-91.5 627.5,-55.5 359.5,-55.5"/>
<text text-anchor="middle" x="390.5" y="-69.8" font-family="Times,serif" font-size="14.00">x2*w2</text>
<polyline fill="none" stroke="black" points="421.5,-55.5 421.5,-91.5 "/>
<text text-anchor="middle" x="472.5" y="-69.8" font-family="Times,serif" font-size="14.00">data 0.0000</text>
<polyline fill="none" stroke="black" points="523.5,-55.5 523.5,-91.5 "/>
<text text-anchor="middle" x="575.5" y="-69.8" font-family="Times,serif" font-size="14.00">grad 0.5010</text>
</g>
<!-- 88923002897792&#45;&gt;88923002898016_op -->
<g id="edge10" class="edge">
<title>88923002897792&#45;&gt;88923002898016_op</title>
<path fill="none" stroke="black" d="M620.8,-91.51C633.85,-93.37 646,-95.1 656.07,-96.54"/>
<polygon fill="black" stroke="black" points="655.75,-100.03 666.14,-97.98 656.74,-93.1 655.75,-100.03"/>
</g>
<!-- 88923002897792_op -->
<g id="node12" class="node">
<title>88923002897792_op</title>
<ellipse fill="none" stroke="black" cx="303" cy="-73.5" rx="18" ry="18"/>
<text text-anchor="middle" x="303" y="-69.8" font-family="Times,serif" font-size="14.00">*</text>
</g>
<!-- 88923002897792_op&#45;&gt;88923002897792 -->
<g id="edge11" class="edge">
<title>88923002897792_op&#45;&gt;88923002897792</title>
<path fill="none" stroke="black" d="M321.06,-73.5C328.62,-73.5 338.28,-73.5 349.14,-73.5"/>
<polygon fill="black" stroke="black" points="349.42,-77 359.42,-73.5 349.42,-70 349.42,-77"/>
</g>
<!-- 88923002896672 -->
<g id="node13" class="node">
<title>88923002896672</title>
<polygon fill="none" stroke="black" points="4.5,-55.5 4.5,-91.5 244.5,-91.5 244.5,-55.5 4.5,-55.5"/>
<text text-anchor="middle" x="21.5" y="-69.8" font-family="Times,serif" font-size="14.00">x2</text>
<polyline fill="none" stroke="black" points="38.5,-55.5 38.5,-91.5 "/>
<text text-anchor="middle" x="89.5" y="-69.8" font-family="Times,serif" font-size="14.00">data 0.0000</text>
<polyline fill="none" stroke="black" points="140.5,-55.5 140.5,-91.5 "/>
<text text-anchor="middle" x="192.5" y="-69.8" font-family="Times,serif" font-size="14.00">grad 0.5010</text>
</g>
<!-- 88923002896672&#45;&gt;88923002897792_op -->
<g id="edge12" class="edge">
<title>88923002896672&#45;&gt;88923002897792_op</title>
<path fill="none" stroke="black" d="M244.7,-73.5C255.67,-73.5 265.91,-73.5 274.61,-73.5"/>
<polygon fill="black" stroke="black" points="274.75,-77 284.75,-73.5 274.75,-70 274.75,-77"/>
</g>
<!-- 88923002897120 -->
<g id="node14" class="node">
<title>88923002897120</title>
<polygon fill="none" stroke="black" points="2.5,-0.5 2.5,-36.5 246.5,-36.5 246.5,-0.5 2.5,-0.5"/>
<text text-anchor="middle" x="21.5" y="-14.8" font-family="Times,serif" font-size="14.00">w2</text>
<polyline fill="none" stroke="black" points="40.5,-0.5 40.5,-36.5 "/>
<text text-anchor="middle" x="91.5" y="-14.8" font-family="Times,serif" font-size="14.00">data 1.0000</text>
<polyline fill="none" stroke="black" points="142.5,-0.5 142.5,-36.5 "/>
<text text-anchor="middle" x="194.5" y="-14.8" font-family="Times,serif" font-size="14.00">grad 0.0000</text>
</g>
<!-- 88923002897120&#45;&gt;88923002897792_op -->
<g id="edge13" class="edge">
<title>88923002897120&#45;&gt;88923002897792_op</title>
<path fill="none" stroke="black" d="M220.65,-36.56C230.33,-39.21 239.93,-42.18 249,-45.5 259.01,-49.16 269.49,-54.37 278.47,-59.31"/>
<polygon fill="black" stroke="black" points="276.77,-62.37 287.2,-64.28 280.24,-56.29 276.77,-62.37"/>
</g>
<!-- 88923002897344 -->
<g id="node15" class="node">
<title>88923002897344</title>
<polygon fill="none" stroke="black" points="752.7,-27.5 752.7,-63.5 984.7,-63.5 984.7,-27.5 752.7,-27.5"/>
<text text-anchor="middle" x="765.7" y="-41.8" font-family="Times,serif" font-size="14.00">b</text>
<polyline fill="none" stroke="black" points="778.7,-27.5 778.7,-63.5 "/>
<text text-anchor="middle" x="829.7" y="-41.8" font-family="Times,serif" font-size="14.00">data 6.8800</text>
<polyline fill="none" stroke="black" points="880.7,-27.5 880.7,-63.5 "/>
<text text-anchor="middle" x="932.7" y="-41.8" font-family="Times,serif" font-size="14.00">grad 0.5010</text>
</g>
<!-- 88923002897344&#45;&gt;88923002898240_op -->
<g id="edge14" class="edge">
<title>88923002897344&#45;&gt;88923002898240_op</title>
<path fill="none" stroke="black" d="M984.86,-62.6C999.14,-64.72 1012.55,-66.71 1023.55,-68.34"/>
<polygon fill="black" stroke="black" points="1023.29,-71.84 1033.69,-69.85 1024.31,-64.92 1023.29,-71.84"/>
</g>
</g>
</svg>
